<svg width="48" height="48" viewBox="0 0 48 48" fill="none" xmlns="http://www.w3.org/2000/svg">
<rect width="48" height="48" rx="5" fill="url(#paint0_linear_1_5)"/>
<path d="M33.862 13.8C32.902 13.8 31.862 13.7067 30.742 13.52C29.6487 13.3333 28.502 13.1067 27.302 12.84V39H22.982V12.2C22.6887 12.1467 22.4087 12.12 22.142 12.12C21.902 12.12 21.6487 12.12 21.382 12.12C19.142 12.12 17.422 12.5333 16.222 13.36C15.0487 14.16 14.462 15.6267 14.462 17.76C14.462 19.36 14.6354 20.5867 14.982 21.44C15.3554 22.2667 15.7287 22.8933 16.102 23.32C15.4354 23.32 14.8087 23.2267 14.222 23.04C13.662 22.8267 13.1687 22.4933 12.742 22.04C12.3154 21.5867 11.982 21 11.742 20.28C11.502 19.5333 11.382 18.6133 11.382 17.52C11.382 16.4267 11.5954 15.3733 12.022 14.36C12.4487 13.3467 13.1287 12.4533 14.062 11.68C15.022 10.88 16.2487 10.24 17.742 9.76C19.262 9.28 21.1154 9.04 23.302 9.04C24.3687 9.04 25.3287 9.09333 26.182 9.2C27.062 9.28 27.8754 9.38666 28.622 9.52C29.3954 9.62666 30.1554 9.73333 30.902 9.84C31.6487 9.92 32.4354 9.96 33.262 9.96C34.382 9.96 35.3154 9.88 36.062 9.72C36.8354 9.53333 37.4754 9.33333 37.982 9.12C38.062 9.6 38.102 10.0533 38.102 10.48C38.102 12.6933 36.6887 13.8 33.862 13.8Z" fill="white"/>
<defs>
<linearGradient id="paint0_linear_1_5" x1="24" y1="-4.90909" x2="24" y2="62.7273" gradientUnits="userSpaceOnUse">
<stop stop-color="#4593EB"/>
<stop offset="1" stop-color="#1D2F44"/>
</linearGradient>
</defs>
</svg>
